<svg width="234" height="286" xmlns="http://www.w3.org/2000/svg" xmlns:xlink="http://www.w3.org/1999/xlink" xml:space="preserve" overflow="hidden"><g transform="translate(-483 -108)"><g><path d="M250.03 86.2449 284.583 156.288 361.884 167.526 305.936 222.085 319.183 299.068 250.03 262.725 180.835 299.068 194.041 222.085 138.134 167.526 215.435 156.288Z" fill="#FFDE59" transform="matrix(1 0 0 1.00075 350.895 26.9827)"/><path d="M249.494 85.5685 284.094 155.616 361.39 166.855 305.442 221.414 318.647 298.397 249.494 262.054 180.341 298.397 193.546 221.414 137.598 166.855 214.894 155.616Z" fill="#FFDE59" transform="matrix(1 0 0 1.00075 350.895 26.9827)"/><path d="M249.494 85.5685 284.094 155.616 361.39 166.855 305.442 221.414 318.647 298.397 249.494 262.054 180.341 298.397 193.546 221.414 137.598 166.855 214.894 155.616Z" fill="#FFDE59" transform="matrix(1 0 0 1.00075 350.895 26.9827)"/><path d="M249.494 85.5685 284.094 155.616 361.39 166.855 305.442 221.414 318.647 298.397 249.494 262.054 180.341 298.397 193.546 221.414 137.598 166.855 214.894 155.616Z" fill="#FFDE59" transform="matrix(1 0 0 1.00075 350.895 26.9827)"/></g><g><path d="M278.412 178.655C270.769 170.991 260.608 166.772 249.801 166.772 238.994 166.772 228.833 170.991 221.195 178.655 213.552 186.314 209.343 196.496 209.343 207.334 209.343 207.459 209.369 207.927 209.379 208.052 209.92 213.302 211.767 218.448 214.899 222.709 218.099 227.069 221.887 229.915 226.091 231.84 224.655 234.567 223.24 237.298 221.845 240.045 220.477 242.756 219.119 245.477 217.823 248.225 217.074 249.806 216.346 251.398 215.659 253.011 214.957 254.661 217.355 255.592 218.042 253.995 218.698 252.475 219.374 250.972 220.066 249.473 222.704 243.833 225.69 238.334 228.843 232.954 230.815 233.656 232.865 234.197 234.973 234.634 244.661 236.622 254.999 235.254 264.141 231.637 268.495 229.915 273.095 227.714 275.993 223.875 278.849 220.092 279.796 214.374 276.555 210.492 275.02 208.661 272.944 207.438 270.769 206.507 268.485 205.529 266.04 204.858 263.568 204.597 260.155 204.238 256.705 204.665 253.469 205.763 258.719 200.102 263.563 194.087 268.032 187.776 269.666 185.476 271.851 183.005 271.753 180.013 271.727 179.072 270.79 178.718 270.015 178.962 266.997 179.92 264.427 182.147 262.091 184.228 260.108 185.986 258.23 187.87 256.424 189.805 252.273 194.264 248.469 199.046 244.843 203.942 244.26 204.722 243.688 205.508 243.115 206.294 244.291 204.254 245.472 202.22 246.669 200.191 249.073 196.096 251.466 192.095 253.948 188.229 254.265 187.729 254.416 187.121 254.057 186.595 253.74 186.137 253.043 185.913 252.533 186.179 247.949 188.546 243.828 191.835 240.134 195.419 239.286 196.241 238.459 197.09 237.673 197.974 236.965 198.77 236.086 199.649 235.602 200.612 235.061 201.699 235.55 202.995 236.825 203.141 237.798 203.255 238.875 202.813 239.718 202.376 240.358 202.043 240.805 201.346 240.555 200.612 240.404 200.159 239.957 199.832 239.489 199.785 239.889 199.327 240.3 198.885 240.717 198.448 241.939 197.168 243.24 195.96 244.588 194.805 245.992 193.604 247.449 192.438 248.969 191.366 244.988 197.818 241.221 204.405 237.496 211.008 234.041 217.126 230.644 223.281 227.34 229.483 223.859 227.917 220.68 225.644 218.068 222.277 216.387 220.108 214.92 217.834 213.916 215.342 213.474 214.233 213.099 213.099 212.797 211.944 212.496 210.799 212.36 210.144 212.199 209.072 212.126 208.604 212.033 207.417 212.033 207.334 212.033 186.455 228.973 169.472 249.801 169.472 270.629 169.472 287.57 186.455 287.57 207.334 287.57 228.214 270.629 245.196 249.801 245.196 249.057 245.196 248.459 245.8 248.459 246.544 248.459 247.288 249.057 247.892 249.801 247.892 260.608 247.892 270.769 243.672 278.412 236.013 286.05 228.349 290.26 218.167 290.26 207.334 290.26 196.496 286.05 186.314 278.412 178.655ZM234.192 224.166C240.935 213.401 248.225 202.823 256.679 193.328 258.605 191.163 260.623 189.035 262.694 187.126 264.463 185.497 266.383 183.702 268.532 182.48 268.365 182.792 268.178 183.088 267.986 183.374 267.304 184.394 266.591 185.393 265.878 186.397 264.416 188.453 262.923 190.482 261.378 192.48 258.396 196.346 255.254 200.092 251.94 203.677 249.988 205.789 247.98 207.849 245.925 209.863 244.811 210.956 246.419 212.626 247.647 211.736 251.336 209.067 255.602 207.371 260.171 207.173 264.406 206.996 269.193 208.182 272.668 210.664 274.38 211.887 275.65 213.552 275.899 215.69 276.139 217.73 275.608 219.821 274.505 221.549 272.153 225.238 267.944 227.246 264.042 228.854 255.66 232.319 246.273 233.724 237.288 232.288 234.895 231.903 232.522 231.377 230.238 230.612 231.539 228.443 232.86 226.294 234.192 224.166Z" transform="matrix(1 0 0 1.00075 350.895 26.9827)"/></g><path d="M243.5 245.056C242.621 245.056 241.908 245.774 241.908 246.653 241.908 247.538 242.621 248.251 243.5 248.251 244.38 248.251 245.098 247.538 245.098 246.653 245.098 245.774 244.38 245.056 243.5 245.056Z" transform="matrix(1 0 0 1.00075 350.895 26.9827)"/><path d="M19.5008 0C23.4239 0 26.5457-0.946946 28.8662-2.85124 31.1972-4.76595 32.3626-7.38826 32.3626-10.7182 32.3626-14.7817 30.4792-17.7995 26.7226-19.7714 29.3293-21.811 30.6352-23.965 30.6352-26.2439 30.6352-29.7507 29.579-32.3262 27.4718-33.9652 25.375-35.5989 22.4457-36.421 18.6892-36.421L4.55783-36.421 4.55783 0ZM17.6694-30.6352C19.5268-30.6352 20.9265-30.2918 21.8734-29.6155 22.8308-28.9495 23.3094-27.7892 23.3094-26.1399 23.3094-24.6414 22.6955-23.5019 21.478-22.7267 20.2709-21.9619 18.6475-21.582 16.608-21.582L11.4674-21.582 11.4674-30.6352ZM19.4384-15.9628C21.1866-15.9628 22.5654-15.4945 23.58-14.5684 24.605-13.6371 25.1201-12.3311 25.1201-10.6557 25.1201-9.08443 24.5633-7.87213 23.4551-7.01364 22.3573-6.14994 20.8588-5.7233 18.9597-5.7233L11.4674-5.7233 11.4674-15.9628Z" fill="#FFFFFF" transform="matrix(1 0 0 1.00075 510.468 387.838)"/><path d="M2.20607-11.9461 16.1709-11.9461 15.6506-17.4196 1.60252-17.4196Z" fill="#FFFFFF" transform="matrix(1 0 0 1.00075 544.164 387.838)"/><path d="M2.51825-2.41419C3.72535-1.66496 5.44234-0.957351 7.67962-0.291368 9.91171 0.359006 11.7796 0.686796 13.278 0.686796 16.1345 0.686796 18.5903 0.260149 20.6455-0.582736 22.6955-1.44123 24.2512-2.62231 25.3074-4.12077 26.3584-5.61924 26.8891-7.35183 26.8891-9.32377 26.8891-11.072 26.4624-12.5965 25.6196-13.9024 24.7871-15.2032 23.7465-16.3062 22.4978-17.2115 21.249-18.1272 19.5685-19.1939 17.4613-20.4166L15.9004-21.3115 14.1938-22.2896C12.3727-23.3563 11.0616-24.2356 10.2603-24.9328 9.45385-25.6248 9.05322-26.4937 9.05322-27.5343 9.05322-28.7518 9.55791-29.6779 10.5725-30.3023 11.5975-30.9266 12.9138-31.2388 14.5268-31.2388 15.9108-31.2388 17.2011-31.0359 18.3978-30.6352 19.5893-30.245 20.9213-29.6987 22.3937-28.9911L24.7038-34.5479C20.916-36.3794 17.4821-37.2951 14.4019-37.2951 11.8056-37.2951 9.56311-36.8684 7.67962-36.0256 5.80654-35.1931 4.37052-34.0328 3.37154-32.5499 2.37257-31.0619 1.87308-29.3917 1.87308-27.5343 1.87308-25.7861 2.37777-24.2043 3.39235-22.7891 4.41734-21.3843 5.62964-20.1668 7.03445-19.1262 8.44967-18.0856 10.354-16.8473 12.7577-15.4217L14.3603-14.4643C16.1761-13.4654 17.5237-12.5965 18.3978-11.8628 19.2719-11.124 19.709-10.3123 19.709-9.42783 19.709-8.13749 19.1522-7.14892 18.044-6.47253 16.9462-5.80654 15.3228-5.47355 13.174-5.47355 11.7848-5.47355 10.2499-5.7285 8.57454-6.2436 6.89397-6.75349 5.39551-7.35183 4.07915-8.03343Z" fill="#FFFFFF" transform="matrix(1 0 0 1.00075 561.949 387.838)"/><path d="M0.541112-30.9682 11.6339-30.9682 11.6339 0 18.6475 0 18.6475-30.9682 31.1139-30.9682 29.9901-36.421 0.541112-36.421Z" fill="#FFFFFF" transform="matrix(1 0 0 1.00075 590.181 387.838)"/><path d="M7.49232 0 10.7182-8.57454 24.5373-8.57454 27.8048 0.541112 34.7768-0.437052 20.6247-36.421 14.7349-36.421 0.541112 0ZM17.5237-26.8891 22.3937-14.1938 12.7577-14.1938Z" fill="#FFFFFF" transform="matrix(1 0 0 1.00075 621.841 387.838)"/><path d="M11.4674 0 11.4674-13.8192 18.0024-13.8192 25.7236 0 33.1119 0 24.1627-15.6506C26.0462-16.5767 27.5551-17.8619 28.6789-19.5008 29.8028-21.1346 30.3647-23.0441 30.3647-25.2241 30.3647-28.8714 29.0171-31.6446 26.3272-33.5489 23.632-35.4636 20.1772-36.421 15.9628-36.421L4.55783-36.421 4.55783 0ZM15.7547-30.6352C20.6091-30.6352 23.0389-28.7257 23.0389-24.9119 23.0389-23.0493 22.3833-21.6861 21.0825-20.812 19.7766-19.9379 18.0336-19.5008 15.8587-19.5008L11.4674-19.5008 11.4674-30.6352Z" fill="#FFFFFF" transform="matrix(1 0 0 1.00075 657.143 387.838)"/></g></svg>